# Blender v2.93.6 OBJ File: 'clockface_19308_autosave.blend'
# www.blender.org
mtllib clocklines.mtl
o Cube_Cube.001
v -0.950851 -0.004405 0.014441
v -0.950851 0.036177 0.014441
v -0.950851 -0.004405 -0.017636
v -0.950851 0.036177 -0.017636
v -0.647264 -0.004405 0.014441
v -0.647264 0.036177 0.014441
v -0.647264 -0.004405 -0.017636
v -0.647264 0.036177 -0.017636
v -0.812536 -0.004405 0.497644
v -0.812536 0.036177 0.497644
v -0.828574 -0.004405 0.469865
v -0.828574 0.036177 0.469865
v -0.549622 -0.004405 0.345851
v -0.549622 0.036177 0.345851
v -0.565660 -0.004405 0.318072
v -0.565660 0.036177 0.318072
v -0.451149 -0.004405 0.846953
v -0.451149 0.036177 0.846953
v -0.478928 -0.004405 0.830915
v -0.478928 0.036177 0.830915
v -0.299356 -0.004405 0.584039
v -0.299356 0.036177 0.584039
v -0.327135 -0.004405 0.568001
v -0.327135 0.036177 0.568001
v 0.036475 -0.004405 0.968770
v 0.036475 0.036177 0.968770
v 0.004398 -0.004405 0.968770
v 0.004398 0.036177 0.968770
v 0.036475 -0.004405 0.665183
v 0.036475 0.036177 0.665183
v 0.004398 -0.004405 0.665183
v 0.004398 0.036177 0.665183
v 0.519679 -0.004405 0.830454
v 0.519679 0.036177 0.830454
v 0.491899 -0.004405 0.846493
v 0.491899 0.036177 0.846493
v 0.367885 -0.004405 0.567540
v 0.367885 0.036177 0.567540
v 0.340106 -0.004405 0.583579
v 0.340106 0.036177 0.583579
v 0.868987 -0.004405 0.469068
v 0.868987 0.036177 0.469068
v 0.852949 -0.004405 0.496847
v 0.852949 0.036177 0.496847
v 0.606073 -0.004405 0.317274
v 0.606073 0.036177 0.317274
v 0.590035 -0.004405 0.345054
v 0.590035 0.036177 0.345054
v 0.990804 -0.004405 -0.018556
v 0.990804 0.036177 -0.018556
v 0.990804 -0.004405 0.013520
v 0.990804 0.036177 0.013520
v 0.687217 -0.004405 -0.018556
v 0.687217 0.036177 -0.018556
v 0.687217 -0.004405 0.013520
v 0.687217 0.036177 0.013520
v 0.852489 -0.004405 -0.501760
v 0.852489 0.036177 -0.501760
v 0.868527 -0.004405 -0.473980
v 0.868527 0.036177 -0.473980
v 0.589575 -0.004405 -0.349966
v 0.589575 0.036177 -0.349966
v 0.605613 -0.004405 -0.322187
v 0.605613 0.036177 -0.322187
v 0.491102 -0.004405 -0.851068
v 0.491102 0.036177 -0.851068
v 0.518881 -0.004405 -0.835030
v 0.518881 0.036177 -0.835030
v 0.339309 -0.004405 -0.588155
v 0.339309 0.036177 -0.588155
v 0.367088 -0.004405 -0.572116
v 0.367088 0.036177 -0.572116
v 0.003478 -0.004405 -0.972885
v 0.003478 0.036177 -0.972885
v 0.035555 -0.004405 -0.972885
v 0.035555 0.036177 -0.972885
v 0.003478 -0.004405 -0.669299
v 0.003478 0.036177 -0.669299
v 0.035555 -0.004405 -0.669299
v 0.035555 0.036177 -0.669299
v -0.479726 -0.004405 -0.834570
v -0.479726 0.036177 -0.834570
v -0.451946 -0.004405 -0.850608
v -0.451946 0.036177 -0.850608
v -0.327932 -0.004405 -0.571656
v -0.327932 0.036177 -0.571656
v -0.300153 -0.004405 -0.587694
v -0.300153 0.036177 -0.587694
v -0.829034 -0.004405 -0.473183
v -0.829034 0.036177 -0.473183
v -0.812996 -0.004405 -0.500963
v -0.812996 0.036177 -0.500963
v -0.566120 -0.004405 -0.321390
v -0.566120 0.036177 -0.321390
v -0.550082 -0.004405 -0.349169
v -0.550082 0.036177 -0.349169
v -0.950196 -0.009211 0.014734
v -0.950196 0.070334 0.014734
v -0.950196 -0.009211 -0.019328
v -0.950196 0.070334 -0.019328
v -0.907593 -0.009211 0.014734
v -0.907593 0.070334 0.014734
v -0.907593 -0.009211 -0.019328
v -0.907593 0.070334 -0.019328
vt 0.375000 0.000000
vt 0.625000 0.000000
vt 0.625000 0.250000
vt 0.375000 0.250000
vt 0.625000 0.500000
vt 0.375000 0.500000
vt 0.625000 0.750000
vt 0.375000 0.750000
vt 0.625000 1.000000
vt 0.375000 1.000000
vt 0.125000 0.500000
vt 0.125000 0.750000
vt 0.875000 0.500000
vt 0.875000 0.750000
vt 0.375000 0.000000
vt 0.625000 0.000000
vt 0.625000 0.250000
vt 0.375000 0.250000
vt 0.625000 0.500000
vt 0.375000 0.500000
vt 0.625000 0.750000
vt 0.375000 0.750000
vt 0.625000 1.000000
vt 0.375000 1.000000
vt 0.125000 0.500000
vt 0.125000 0.750000
vt 0.875000 0.500000
vt 0.875000 0.750000
vt 0.375000 0.000000
vt 0.625000 0.000000
vt 0.625000 0.250000
vt 0.375000 0.250000
vt 0.625000 0.500000
vt 0.375000 0.500000
vt 0.625000 0.750000
vt 0.375000 0.750000
vt 0.625000 1.000000
vt 0.375000 1.000000
vt 0.125000 0.500000
vt 0.125000 0.750000
vt 0.875000 0.500000
vt 0.875000 0.750000
vt 0.375000 0.000000
vt 0.625000 0.000000
vt 0.625000 0.250000
vt 0.375000 0.250000
vt 0.625000 0.500000
vt 0.375000 0.500000
vt 0.625000 0.750000
vt 0.375000 0.750000
vt 0.625000 1.000000
vt 0.375000 1.000000
vt 0.125000 0.500000
vt 0.125000 0.750000
vt 0.875000 0.500000
vt 0.875000 0.750000
vt 0.375000 0.000000
vt 0.625000 0.000000
vt 0.625000 0.250000
vt 0.375000 0.250000
vt 0.625000 0.500000
vt 0.375000 0.500000
vt 0.625000 0.750000
vt 0.375000 0.750000
vt 0.625000 1.000000
vt 0.375000 1.000000
vt 0.125000 0.500000
vt 0.125000 0.750000
vt 0.875000 0.500000
vt 0.875000 0.750000
vt 0.375000 0.000000
vt 0.625000 0.000000
vt 0.625000 0.250000
vt 0.375000 0.250000
vt 0.625000 0.500000
vt 0.375000 0.500000
vt 0.625000 0.750000
vt 0.375000 0.750000
vt 0.625000 1.000000
vt 0.375000 1.000000
vt 0.125000 0.500000
vt 0.125000 0.750000
vt 0.875000 0.500000
vt 0.875000 0.750000
vt 0.375000 0.000000
vt 0.625000 0.000000
vt 0.625000 0.250000
vt 0.375000 0.250000
vt 0.625000 0.500000
vt 0.375000 0.500000
vt 0.625000 0.750000
vt 0.375000 0.750000
vt 0.625000 1.000000
vt 0.375000 1.000000
vt 0.125000 0.500000
vt 0.125000 0.750000
vt 0.875000 0.500000
vt 0.875000 0.750000
vt 0.375000 0.000000
vt 0.625000 0.000000
vt 0.625000 0.250000
vt 0.375000 0.250000
vt 0.625000 0.500000
vt 0.375000 0.500000
vt 0.625000 0.750000
vt 0.375000 0.750000
vt 0.625000 1.000000
vt 0.375000 1.000000
vt 0.125000 0.500000
vt 0.125000 0.750000
vt 0.875000 0.500000
vt 0.875000 0.750000
vt 0.375000 0.000000
vt 0.625000 0.000000
vt 0.625000 0.250000
vt 0.375000 0.250000
vt 0.625000 0.500000
vt 0.375000 0.500000
vt 0.625000 0.750000
vt 0.375000 0.750000
vt 0.625000 1.000000
vt 0.375000 1.000000
vt 0.125000 0.500000
vt 0.125000 0.750000
vt 0.875000 0.500000
vt 0.875000 0.750000
vt 0.375000 0.000000
vt 0.625000 0.000000
vt 0.625000 0.250000
vt 0.375000 0.250000
vt 0.625000 0.500000
vt 0.375000 0.500000
vt 0.625000 0.750000
vt 0.375000 0.750000
vt 0.625000 1.000000
vt 0.375000 1.000000
vt 0.125000 0.500000
vt 0.125000 0.750000
vt 0.875000 0.500000
vt 0.875000 0.750000
vt 0.375000 0.000000
vt 0.625000 0.000000
vt 0.625000 0.250000
vt 0.375000 0.250000
vt 0.625000 0.500000
vt 0.375000 0.500000
vt 0.625000 0.750000
vt 0.375000 0.750000
vt 0.625000 1.000000
vt 0.375000 1.000000
vt 0.125000 0.500000
vt 0.125000 0.750000
vt 0.875000 0.500000
vt 0.875000 0.750000
vt 0.375000 0.000000
vt 0.625000 0.000000
vt 0.625000 0.250000
vt 0.375000 0.250000
vt 0.625000 0.500000
vt 0.375000 0.500000
vt 0.625000 0.750000
vt 0.375000 0.750000
vt 0.625000 1.000000
vt 0.375000 1.000000
vt 0.125000 0.500000
vt 0.125000 0.750000
vt 0.875000 0.500000
vt 0.875000 0.750000
vt 0.375000 0.000000
vt 0.625000 0.000000
vt 0.625000 0.250000
vt 0.375000 0.250000
vt 0.625000 0.500000
vt 0.375000 0.500000
vt 0.625000 0.750000
vt 0.375000 0.750000
vt 0.625000 1.000000
vt 0.375000 1.000000
vt 0.125000 0.500000
vt 0.125000 0.750000
vt 0.875000 0.500000
vt 0.875000 0.750000
vn -1.0000 0.0000 0.0000
vn 0.0000 0.0000 -1.0000
vn 1.0000 0.0000 0.0000
vn 0.0000 0.0000 1.0000
vn 0.0000 -1.0000 0.0000
vn 0.0000 1.0000 0.0000
vn -0.8660 0.0000 0.5000
vn -0.5000 0.0000 -0.8660
vn 0.8660 0.0000 -0.5000
vn 0.5000 0.0000 0.8660
vn -0.5000 0.0000 0.8660
vn -0.8660 0.0000 -0.5000
vn 0.5000 0.0000 -0.8660
vn 0.8660 0.0000 0.5000
usemtl None
s off
f 1/1/1 2/2/1 4/3/1 3/4/1
f 3/4/2 4/3/2 8/5/2 7/6/2
f 7/6/3 8/5/3 6/7/3 5/8/3
f 5/8/4 6/7/4 2/9/4 1/10/4
f 3/11/5 7/6/5 5/8/5 1/12/5
f 8/5/6 4/13/6 2/14/6 6/7/6
f 9/15/7 10/16/7 12/17/7 11/18/7
f 11/18/8 12/17/8 16/19/8 15/20/8
f 15/20/9 16/19/9 14/21/9 13/22/9
f 13/22/10 14/21/10 10/23/10 9/24/10
f 11/25/5 15/20/5 13/22/5 9/26/5
f 16/19/6 12/27/6 10/28/6 14/21/6
f 17/29/11 18/30/11 20/31/11 19/32/11
f 19/32/12 20/31/12 24/33/12 23/34/12
f 23/34/13 24/33/13 22/35/13 21/36/13
f 21/36/14 22/35/14 18/37/14 17/38/14
f 19/39/5 23/34/5 21/36/5 17/40/5
f 24/33/6 20/41/6 18/42/6 22/35/6
f 25/43/4 26/44/4 28/45/4 27/46/4
f 27/46/1 28/45/1 32/47/1 31/48/1
f 31/48/2 32/47/2 30/49/2 29/50/2
f 29/50/3 30/49/3 26/51/3 25/52/3
f 27/53/5 31/48/5 29/50/5 25/54/5
f 32/47/6 28/55/6 26/56/6 30/49/6
f 33/57/10 34/58/10 36/59/10 35/60/10
f 35/60/7 36/59/7 40/61/7 39/62/7
f 39/62/8 40/61/8 38/63/8 37/64/8
f 37/64/9 38/63/9 34/65/9 33/66/9
f 35/67/5 39/62/5 37/64/5 33/68/5
f 40/61/6 36/69/6 34/70/6 38/63/6
f 41/71/14 42/72/14 44/73/14 43/74/14
f 43/74/11 44/73/11 48/75/11 47/76/11
f 47/76/12 48/75/12 46/77/12 45/78/12
f 45/78/13 46/77/13 42/79/13 41/80/13
f 43/81/5 47/76/5 45/78/5 41/82/5
f 48/75/6 44/83/6 42/84/6 46/77/6
f 49/85/3 50/86/3 52/87/3 51/88/3
f 51/88/4 52/87/4 56/89/4 55/90/4
f 55/90/1 56/89/1 54/91/1 53/92/1
f 53/92/2 54/91/2 50/93/2 49/94/2
f 51/95/5 55/90/5 53/92/5 49/96/5
f 56/89/6 52/97/6 50/98/6 54/91/6
f 57/99/9 58/100/9 60/101/9 59/102/9
f 59/102/10 60/101/10 64/103/10 63/104/10
f 63/104/7 64/103/7 62/105/7 61/106/7
f 61/106/8 62/105/8 58/107/8 57/108/8
f 59/109/5 63/104/5 61/106/5 57/110/5
f 64/103/6 60/111/6 58/112/6 62/105/6
f 65/113/13 66/114/13 68/115/13 67/116/13
f 67/116/14 68/115/14 72/117/14 71/118/14
f 71/118/11 72/117/11 70/119/11 69/120/11
f 69/120/12 70/119/12 66/121/12 65/122/12
f 67/123/5 71/118/5 69/120/5 65/124/5
f 72/117/6 68/125/6 66/126/6 70/119/6
f 73/127/2 74/128/2 76/129/2 75/130/2
f 75/130/3 76/129/3 80/131/3 79/132/3
f 79/132/4 80/131/4 78/133/4 77/134/4
f 77/134/1 78/133/1 74/135/1 73/136/1
f 75/137/5 79/132/5 77/134/5 73/138/5
f 80/131/6 76/139/6 74/140/6 78/133/6
f 81/141/8 82/142/8 84/143/8 83/144/8
f 83/144/9 84/143/9 88/145/9 87/146/9
f 87/146/10 88/145/10 86/147/10 85/148/10
f 85/148/7 86/147/7 82/149/7 81/150/7
f 83/151/5 87/146/5 85/148/5 81/152/5
f 88/145/6 84/153/6 82/154/6 86/147/6
f 89/155/12 90/156/12 92/157/12 91/158/12
f 91/158/13 92/157/13 96/159/13 95/160/13
f 95/160/14 96/159/14 94/161/14 93/162/14
f 93/162/11 94/161/11 90/163/11 89/164/11
f 91/165/5 95/160/5 93/162/5 89/166/5
f 96/159/6 92/167/6 90/168/6 94/161/6
f 97/169/1 98/170/1 100/171/1 99/172/1
f 99/172/2 100/171/2 104/173/2 103/174/2
f 103/174/3 104/173/3 102/175/3 101/176/3
f 101/176/4 102/175/4 98/177/4 97/178/4
f 99/179/5 103/174/5 101/176/5 97/180/5
f 104/173/6 100/181/6 98/182/6 102/175/6
